<svg xmlns="http://www.w3.org/2000/svg" width="24.643" height="23.591" viewBox="0 0 24.643 23.591"><defs><style>.a{fill:none;stroke:#f5d43b;stroke-linecap:round;stroke-miterlimit:10;stroke-width:1.35px;}</style></defs><path class="a" d="M564.4-206.45l7.476,1.152a.321.321,0,0,1,.173.549l-5.462,5.233a.321.321,0,0,0-.095.284l1.214,7.466a.321.321,0,0,1-.469.334l-6.665-3.578a.322.322,0,0,0-.3,0l-6.726,3.462a.321.321,0,0,1-.463-.343l1.343-7.444a.321.321,0,0,0-.09-.285l-5.371-5.327a.321.321,0,0,1,.183-.546l7.495-1.023a.321.321,0,0,0,.243-.174l3.406-6.754a.321.321,0,0,1,.576,0l3.289,6.812A.321.321,0,0,0,564.4-206.45Z" transform="translate(-548.185 214.297)"/></svg>