<svg xmlns="http://www.w3.org/2000/svg" width="20.248" height="20.247" viewBox="0 0 20.248 20.247"><defs><style>.a{isolation:isolate;}.b{fill:#f5d43b;}</style></defs><g class="a" transform="translate(0 0)"><g transform="translate(0 0)"><path class="b" d="M284.545-195.866c1.763,1.678,3.5,3.335,5.245,4.993a4.353,4.353,0,0,1,.441.441.982.982,0,0,1-.035,1.382.976.976,0,0,1-1.428.063c-.444-.4-.845-.855-1.259-1.29q-2.078-2.181-4.149-4.361a8.137,8.137,0,0,1-11.56-1.539,8.031,8.031,0,0,1,.987-10.6,8.032,8.032,0,0,1,10.64-.315A8.1,8.1,0,0,1,284.545-195.866Zm-12.637-5.089a6.41,6.41,0,0,0,6.323,6.4,6.426,6.426,0,0,0,6.419-6.313,6.41,6.41,0,0,0-6.294-6.429A6.392,6.392,0,0,0,271.908-200.955Z" transform="translate(-270.25 208.954)"/></g></g></svg>