<svg xmlns="http://www.w3.org/2000/svg" width="18.513" height="18.5" viewBox="0 0 18.513 18.5"><defs><style>.a{fill:#f5d43b;}</style></defs><g transform="translate(-615.875 -411.626)"><g transform="translate(615.875 411.626)"><path class="a" d="M625.145,411.627a9.25,9.25,0,1,1-9.269,9.229A9.22,9.22,0,0,1,625.145,411.627ZM630,420.978h.01q0-1.028,0-2.056a3.4,3.4,0,0,0-.117-.965,2.7,2.7,0,0,0-2.594-1.936c-1.378-.01-2.756,0-4.133,0a5.221,5.221,0,0,0-.621.034,2.683,2.683,0,0,0-2.413,2.657q-.026,2.285,0,4.569a2.65,2.65,0,0,0,2.585,2.65c1.578.042,3.157.029,4.735,0a2.5,2.5,0,0,0,1.294-.4,2.585,2.585,0,0,0,1.244-2.14C630.04,422.586,630,421.781,630,420.978Z" transform="translate(-615.876 -411.626)"/><path class="a" d="M742.745,537.7h1.912a1.94,1.94,0,0,1,2.194,2.147c.018,1.316.01,2.632,0,3.948a2.035,2.035,0,0,1-.581,1.569,2.076,2.076,0,0,1-1.467.534c-1.364.013-2.729.017-4.093,0a1.925,1.925,0,0,1-1.766-.9,2.051,2.051,0,0,1-.287-1.07c0-1.427-.006-2.854,0-4.28a1.834,1.834,0,0,1,1.926-1.943c.72-.01,1.441,0,2.161,0Zm0,1.557a2.525,2.525,0,1,0,0,5.05,2.525,2.525,0,1,0,0-5.05Zm2.08-.154a.566.566,0,0,0,.563.588.573.573,0,0,0,.58-.576.551.551,0,0,0-.559-.567A.539.539,0,0,0,744.828,539.1Z" transform="translate(-733.551 -532.456)"/><path class="a" d="M798.326,595.692a1.674,1.674,0,1,1-1.672,1.649A1.654,1.654,0,0,1,798.326,595.692Z" transform="translate(-789.14 -588.041)"/></g></g></svg>