<svg xmlns="http://www.w3.org/2000/svg" width="18.324" height="18.323" viewBox="0 0 18.324 18.323"><defs><style>.a{fill:#f5d43b;}</style></defs><g transform="translate(-845.371 508.814)"><g transform="translate(845.371 -508.814)"><path class="a" d="M863.695-500.141v.977c-.017.185-.034.37-.052.556a8.6,8.6,0,0,1-.544,2.236,9.068,9.068,0,0,1-1.979,3.1,8.949,8.949,0,0,1-3.478,2.251,8.723,8.723,0,0,1-2.275.505,2.977,2.977,0,0,0-.425.026h-.814c-.2-.012-.393-.016-.588-.037a9.22,9.22,0,0,1-1.776-.383,9,9,0,0,1-2.722-1.391,9.18,9.18,0,0,1-2.758-3.343,9.065,9.065,0,0,1-.821-2.64c-.043-.285-.062-.572-.091-.858v-1.018c.017-.175.033-.35.052-.525a8.9,8.9,0,0,1,.972-3.192,9.148,9.148,0,0,1,1.988-2.57,9.1,9.1,0,0,1,1.956-1.363,9.361,9.361,0,0,1,2.726-.887c.311-.053.624-.083.938-.116h.672a.554.554,0,0,0,.172.012,6.1,6.1,0,0,1,.862.052,9.462,9.462,0,0,1,2.359.639,9.107,9.107,0,0,1,3.65,2.767,9.053,9.053,0,0,1,1.9,4.425C863.654-500.661,863.669-500.4,863.695-500.141Zm-9.163,2.781c1.014,0,2.028,0,3.042,0,.1,0,.136-.028.156-.125a11.351,11.351,0,0,0,.234-2.087c.006-.288-.016-.576-.037-.863a11.2,11.2,0,0,0-.193-1.367.133.133,0,0,0-.156-.127q-3.048,0-6.1,0c-.09,0-.135.026-.154.118a10.432,10.432,0,0,0-.208,1.529,10.113,10.113,0,0,0-.007,1.108,11.577,11.577,0,0,0,.214,1.682c.021.106.068.134.171.134C852.51-497.361,853.521-497.36,854.532-497.36Zm6.017,0c.516,0,1.031,0,1.547,0,.071,0,.12-.011.144-.092a7.8,7.8,0,0,0,.265-1.4,7.478,7.478,0,0,0,.006-1.532,8.135,8.135,0,0,0-.266-1.447.121.121,0,0,0-.136-.1q-1.546,0-3.093,0c-.116,0-.123.006-.1.124a8.135,8.135,0,0,1,.177,1.522,11.818,11.818,0,0,1-.178,2.794c-.026.121-.021.125.106.125Zm-12.042,0c.516,0,1.031,0,1.547,0,.089,0,.118-.019.1-.118a11.156,11.156,0,0,1-.191-2.579,10.6,10.6,0,0,1,.184-1.737c.027-.132.024-.134-.118-.134h-1.242c-.607,0-1.214,0-1.822,0-.085,0-.131.024-.151.111-.033.149-.079.295-.114.443a8.069,8.069,0,0,0-.162,1.91,7.008,7.008,0,0,0,.271,1.967c.03.1.07.141.181.14C847.5-497.363,848-497.36,848.507-497.36Zm6.032,1.156h-2.686c-.14,0-.143,0-.1.134.009.029.02.058.031.086a12.392,12.392,0,0,0,.908,1.795,11.184,11.184,0,0,0,1.78,2.148c.047.047.078.05.124,0,.141-.147.285-.291.427-.436a10.306,10.306,0,0,0,.71-.8,10.29,10.29,0,0,0,1.072-1.677,9.476,9.476,0,0,0,.513-1.128c.042-.117.034-.126-.092-.126Zm-.015-6.9h2.635c.208,0,.209,0,.128-.2a11.19,11.19,0,0,0-1.27-2.346,11.876,11.876,0,0,0-1.423-1.6c-.047-.045-.084-.048-.128,0-.023.025-.049.047-.073.07a11.583,11.583,0,0,0-1.615,1.93,12.113,12.113,0,0,0-1.022,2.009c-.052.128-.041.138.093.138Zm1.521,11.3a.185.185,0,0,0,.124-.008,9.735,9.735,0,0,0,1.083-.313,7.984,7.984,0,0,0,3.122-2.057,7.843,7.843,0,0,0,1.332-1.9c.049-.1.044-.106-.067-.108-.254,0-.509-.009-.763-.015-.712-.018-1.424.012-2.136.012a.183.183,0,0,0-.211.148,10.029,10.029,0,0,1-.708,1.674,12.178,12.178,0,0,1-1.648,2.377A.5.5,0,0,0,856.045-491.8Zm-6.969-11.322c.42,0,.841,0,1.261,0a.175.175,0,0,0,.2-.145,11.456,11.456,0,0,1,2.144-3.8c.1-.114.195-.226.291-.34.019-.022.048-.047.029-.08s-.055-.017-.084-.016a.208.208,0,0,0-.04.008,8.471,8.471,0,0,0-1.949.695,8.228,8.228,0,0,0-1.657,1.118,8.1,8.1,0,0,0-1.914,2.456c-.048.094-.041.1.061.106C847.971-503.093,848.524-503.1,849.076-503.119Zm6.956-4.4a.541.541,0,0,0,.123.182,12.076,12.076,0,0,1,1.52,2.134,11.075,11.075,0,0,1,.858,1.941c.023.069.034.14.141.14.987,0,1.974.042,2.96,0,.114-.005.117-.007.067-.107a7.792,7.792,0,0,0-1.435-2.013,8.043,8.043,0,0,0-3.525-2.1A5.517,5.517,0,0,0,856.032-507.515Zm-3.01,15.725a.221.221,0,0,0-.062-.111c-.176-.211-.357-.418-.527-.634a11.488,11.488,0,0,1-1.911-3.535.142.142,0,0,0-.159-.116c-.977,0-1.955,0-2.932,0-.119,0-.123.006-.07.112a7.638,7.638,0,0,0,1.264,1.826,7.931,7.931,0,0,0,3.8,2.315A3.745,3.745,0,0,0,853.023-491.79Z" transform="translate(-845.371 508.814)"/></g></g></svg>